<svg width="26" height="26" viewBox="0 0 26 26" fill="none" xmlns="http://www.w3.org/2000/svg">
<path d="M9.25 16.75L16.75 9.25" stroke="#4B4B4B" stroke-width="2" stroke-linecap="round" stroke-linejoin="round"/>
<path d="M9.875 10.5C10.2202 10.5 10.5 10.2202 10.5 9.875C10.5 9.52982 10.2202 9.25 9.875 9.25C9.52982 9.25 9.25 9.52982 9.25 9.875C9.25 10.2202 9.52982 10.5 9.875 10.5Z" fill="#4B4B4B" stroke="#4B4B4B" stroke-width="2" stroke-linecap="round" stroke-linejoin="round"/>
<path d="M16.125 16.75C16.4702 16.75 16.75 16.4702 16.75 16.125C16.75 15.7798 16.4702 15.5 16.125 15.5C15.7798 15.5 15.5 15.7798 15.5 16.125C15.5 16.4702 15.7798 16.75 16.125 16.75Z" fill="#4B4B4B" stroke="#4B4B4B" stroke-width="2" stroke-linecap="round" stroke-linejoin="round"/>
<path d="M4.25 7C4.25 6.27065 4.53973 5.57118 5.05545 5.05545C5.57118 4.53973 6.27065 4.25 7 4.25H8.25C8.97612 4.24958 9.67261 3.962 10.1875 3.45L11.0625 2.575C11.3181 2.318 11.6219 2.11405 11.9565 1.97488C12.2912 1.83571 12.6501 1.76407 13.0125 1.76407C13.3749 1.76407 13.7338 1.83571 14.0684 1.97488C14.4031 2.11405 14.7069 2.318 14.9625 2.575L15.8375 3.45C16.3524 3.962 17.0489 4.24958 17.775 4.25H19.025C19.7543 4.25 20.4538 4.53973 20.9695 5.05545C21.4853 5.57118 21.775 6.27065 21.775 7V8.25C21.7754 8.97612 22.063 9.67261 22.575 10.1875L23.45 11.0625C23.707 11.3181 23.9109 11.6219 24.0501 11.9565C24.1893 12.2912 24.2609 12.6501 24.2609 13.0125C24.2609 13.3749 24.1893 13.7338 24.0501 14.0684C23.9109 14.4031 23.707 14.7069 23.45 14.9625L22.575 15.8375C22.063 16.3524 21.7754 17.0489 21.775 17.775V19.025C21.775 19.7543 21.4853 20.4538 20.9695 20.9695C20.4538 21.4853 19.7543 21.775 19.025 21.775H17.775C17.0489 21.7754 16.3524 22.063 15.8375 22.575L14.9625 23.45C14.7069 23.707 14.4031 23.9109 14.0684 24.0501C13.7338 24.1893 13.3749 24.2609 13.0125 24.2609C12.6501 24.2609 12.2912 24.1893 11.9565 24.0501C11.6219 23.9109 11.3181 23.707 11.0625 23.45L10.1875 22.575C9.67261 22.063 8.97612 21.7754 8.25 21.775H7C6.27065 21.775 5.57118 21.4853 5.05545 20.9695C4.53973 20.4538 4.25 19.7543 4.25 19.025V17.775C4.24958 17.0489 3.962 16.3524 3.45 15.8375L2.575 14.9625C2.318 14.7069 2.11405 14.4031 1.97488 14.0684C1.83571 13.7338 1.76407 13.3749 1.76407 13.0125C1.76407 12.6501 1.83571 12.2912 1.97488 11.9565C2.11405 11.6219 2.318 11.3181 2.575 11.0625L3.45 10.1875C3.962 9.67261 4.24958 8.97612 4.25 8.25V7" stroke="#4B4B4B" stroke-width="2" stroke-linecap="round" stroke-linejoin="round"/>
</svg>
