<svg width="26" height="26" viewBox="0 0 26 26" fill="none" xmlns="http://www.w3.org/2000/svg">
<path d="M4.25 13H1.75L13 1.75L24.25 13H21.75" stroke="#2072EF" stroke-width="2" stroke-linecap="round" stroke-linejoin="round"/>
<path d="M4.25 13V21.75C4.25 22.413 4.51339 23.0489 4.98223 23.5178C5.45107 23.9866 6.08696 24.25 6.75 24.25H19.25C19.913 24.25 20.5489 23.9866 21.0178 23.5178C21.4866 23.0489 21.75 22.413 21.75 21.75V13" stroke="#2072EF" stroke-width="2" stroke-linecap="round" stroke-linejoin="round"/>
<path d="M9.25 24.25V16.75C9.25 16.087 9.51339 15.4511 9.98223 14.9822C10.4511 14.5134 11.087 14.25 11.75 14.25H14.25C14.913 14.25 15.5489 14.5134 16.0178 14.9822C16.4866 15.4511 16.75 16.087 16.75 16.75V24.25" stroke="#2072EF" stroke-width="2" stroke-linecap="round" stroke-linejoin="round"/>
</svg>
