<svg width="22" height="26" viewBox="0 0 22 26" fill="none" xmlns="http://www.w3.org/2000/svg">
<path d="M8.5 4.25C8.5 3.58696 8.76339 2.95107 9.23223 2.48223C9.70107 2.01339 10.337 1.75 11 1.75C11.663 1.75 12.2989 2.01339 12.7678 2.48223C13.2366 2.95107 13.5 3.58696 13.5 4.25C14.9355 4.92878 16.1592 5.98541 17.0401 7.30662C17.9209 8.62784 18.4255 10.1638 18.5 11.75V15.5C18.5941 16.2771 18.8693 17.0213 19.3035 17.6727C19.7377 18.324 20.3188 18.8643 21 19.25H1C1.68117 18.8643 2.26226 18.324 2.69648 17.6727C3.13071 17.0213 3.40593 16.2771 3.5 15.5V11.75C3.57445 10.1638 4.07913 8.62784 4.95994 7.30662C5.84075 5.98541 7.06449 4.92878 8.5 4.25" stroke="#4B4B4B" stroke-width="2" stroke-linecap="round" stroke-linejoin="round"/>
<path d="M7.25 19.25V20.5C7.25 21.4946 7.64509 22.4484 8.34835 23.1517C9.05161 23.8549 10.0054 24.25 11 24.25C11.9946 24.25 12.9484 23.8549 13.6517 23.1517C14.3549 22.4484 14.75 21.4946 14.75 20.5V19.25" stroke="#4B4B4B" stroke-width="2" stroke-linecap="round" stroke-linejoin="round"/>
</svg>
