<svg width="26" height="26" viewBox="0 0 26 26" fill="none" xmlns="http://www.w3.org/2000/svg">
<path d="M13 24.25C19.2132 24.25 24.25 19.2132 24.25 13C24.25 6.7868 19.2132 1.75 13 1.75C6.7868 1.75 1.75 6.7868 1.75 13C1.75 19.2132 6.7868 24.25 13 24.25Z" stroke="#4B4B4B" stroke-width="2" stroke-linecap="round" stroke-linejoin="round"/>
<path d="M13 19.25V19.2617" stroke="#4B4B4B" stroke-width="2" stroke-linecap="round" stroke-linejoin="round"/>
<path d="M13 14.875C12.977 14.4692 13.0864 14.067 13.3119 13.7288C13.5373 13.3906 13.8666 13.1348 14.25 13C14.7198 12.8203 15.1416 12.5341 15.482 12.1637C15.8224 11.7934 16.0721 11.3491 16.2117 10.8658C16.3512 10.3825 16.3766 9.87339 16.2859 9.3786C16.1952 8.88382 15.991 8.41684 15.6891 8.01442C15.3873 7.612 14.9962 7.28513 14.5466 7.05955C14.097 6.83396 13.6012 6.71582 13.0982 6.71443C12.5951 6.71303 12.0987 6.82842 11.6478 7.05151C11.197 7.27459 10.804 7.59928 10.5 8.00002" stroke="#4B4B4B" stroke-width="2" stroke-linecap="round" stroke-linejoin="round"/>
</svg>
