<?xml version="1.0" encoding="UTF-8"?>
<svg width="148px" height="41px" viewBox="0 0 148 41" version="1.1" xmlns="http://www.w3.org/2000/svg" xmlns:xlink="http://www.w3.org/1999/xlink">
    <title>8A4029B1-3D8E-4D12-94AA-1DF44665F872</title>
    <defs>
        <filter color-interpolation-filters="auto" id="filter-1">
            <feColorMatrix in="SourceGraphic" type="matrix" values="0 0 0 0 0.000000 0 0 0 0 0.360784 0 0 0 0 1.000000 0 0 0 1.000000 0"></feColorMatrix>
        </filter>
    </defs>
    <g id="🤑🌞-Pre-built-templates-(Light)" stroke="none" stroke-width="1" fill="none" fill-rule="evenodd">
        <g id="Home" transform="translate(-159.000000, -3411.000000)">
            <g id="minted_pix_4" transform="translate(0.000000, 3365.000000)" filter="url(#filter-1)">
                <g transform="translate(159.972369, 46.000000)">
                    <path d="M138.013916,0 C142.992053,0 147.027631,4.27102617 147.027631,9.53960396 L147.027631,31.460396 C147.027631,36.7289738 142.992053,41 138.013916,41 L103.438439,41 L103.438439,40.989 L108.038439,36.331 L138.019045,36.3316832 C140.53422,36.3316832 142.577935,34.1941345 142.618558,31.5409517 L142.619174,9.53960396 C142.619174,6.87616974 140.600611,4.71198676 138.095117,4.66896944 L101.026344,4.66831683 C98.7073813,4.66831683 96.7891897,6.48536771 96.4721827,8.84829675 L96.472,13.602 L96.464,13.602 L96.4644098,33.2488879 L95.3261961,34.0580384 L93.7622034,32.9460672 L93.6401329,32.8694231 C93.2219819,32.6382438 92.6504355,32.6145254 92.2008085,32.7982679 L92.197428,32.2511341 L92.1974098,29.7878879 L92.1909351,29.788843 L92.1909351,27.6993732 L92.1276178,27.6993732 C91.599974,28.5858149 90.9087605,29.224264 90.0539774,29.6147205 C89.1991943,30.005177 88.233606,30.2004052 87.1572125,30.2004052 C85.9330788,30.2004052 84.8566853,29.9629655 83.928032,29.488086 C82.9993788,29.0132065 82.2342952,28.369481 81.6327812,27.5569094 C81.0312672,26.7443378 80.5774934,25.8104082 80.27146,24.7551204 C79.9654265,23.6998327 79.8124098,22.6023334 79.8124098,21.4626227 C79.8124098,20.3651234 79.9654265,19.3045592 80.27146,18.2809301 C80.5774934,17.257301 81.0312672,16.35503 81.6327812,15.574117 C82.2342952,14.7932041 82.9888259,14.1653079 83.8963734,13.6904284 C84.8039209,13.2155489 85.8592086,12.9781092 87.0622366,12.9781092 C88.0331014,12.9781092 88.9564782,13.1838903 89.832367,13.5954525 C90.6206669,13.9658585 91.2593798,14.4943994 91.7485057,15.1810751 L91.9060074,15.4158239 L91.9693247,15.4158239 L91.9684098,12.1658879 L91.983,12.165 L91.9864386,9.24359433 C92.1391869,4.11124471 96.116021,0 101.000153,0 L138.013916,0 Z M103.49441,34.4358879 L103.495202,35.3456583 L103.457428,35.3456322 L99.506428,39.2971341 L99.511795,39.3023163 L99.437428,39.3756322 L99.3945753,39.3763433 C99.0240896,39.8176907 98.4682953,40.0982541 97.846972,40.0982541 C97.2256487,40.0982541 96.6698545,39.8176907 96.2993688,39.3763433 L96.297428,39.3756322 L96.2235766,39.3023163 L96.232428,39.2931341 L92.197428,35.2586509 L92.211428,35.2446322 L92.2074098,34.4468879 L94.3730324,35.986299 L94.5048718,36.0682959 C94.642464,36.1428967 94.7962383,36.1953211 94.9565139,36.225675 C95.3526969,36.3310737 95.7808774,36.2797392 96.1458916,36.0716713 L96.2796252,35.986299 L97.8334098,34.8798879 L97.870428,34.9171341 L97.8844098,34.9028879 L99.4078759,35.986299 L99.5397154,36.0682959 C99.6773075,36.1428967 99.8310818,36.1953211 99.9913574,36.225675 C100.38754,36.3310737 100.815721,36.2797392 101.180735,36.0716713 L101.314469,35.986299 L103.49441,34.4358879 Z M108.20568,12.9781092 C109.493131,12.9781092 110.601184,13.2208254 111.529837,13.7062577 C112.45849,14.1916901 113.22885,14.8354156 113.840917,15.6374343 C114.452984,16.439453 114.906758,17.3733826 115.202238,18.4392233 C115.497719,19.5050639 115.645459,20.6183925 115.645459,21.779209 C115.645459,22.8767082 115.497719,23.931996 115.202238,24.9450722 C114.906758,25.9581485 114.45826,26.855143 113.856746,27.636056 C113.255232,28.4169689 112.505978,29.0395887 111.608983,29.5039153 C110.711989,29.9682419 109.661978,30.2004052 108.458949,30.2004052 C107.445873,30.2004052 106.511944,29.9946241 105.657161,29.5830619 C104.897353,29.2172288 104.258448,28.6971413 103.740445,28.0227994 L103.551861,27.7626905 L103.49441,27.7625794 L103.494739,32.7946664 C103.039564,32.588072 102.508939,32.6082908 102.068532,32.8553228 L101.925298,32.9460672 L100.361196,34.0580384 L98.9924098,33.0848879 L98.9930184,13.42133 L103.266934,13.42133 L103.266934,15.5107998 L103.330251,15.5107998 C103.879001,14.6243581 104.575491,13.9806325 105.419721,13.5796232 C106.263951,13.1786138 107.192604,12.9781092 108.20568,12.9781092 Z M70.7706114,14.3448213 C72.1635912,14.3448213 73.3771722,14.6139197 74.4113541,15.1521165 C75.4455361,15.6903132 76.2950428,16.4131853 76.9598741,17.3207328 C77.6247053,18.2282803 78.1048613,19.2624622 78.4003418,20.4232788 C78.6629912,21.4551157 78.7755552,22.528643 78.7380339,23.6438606 L78.7169282,24.0640215 L66.9082583,24.0640215 C66.9715755,25.5203186 67.3409262,26.5756063 68.0163104,27.2298847 C68.6916946,27.8841631 69.6625593,28.2113023 70.9289046,28.2113023 C71.836452,28.2113023 72.617365,27.9844155 73.2716434,27.5306417 C73.8604939,27.1222454 74.2441966,26.6924795 74.4227513,26.2413439 L74.4746714,26.090174 L78.4320005,26.090174 C77.7988278,28.0530092 76.8279631,29.4565419 75.5194063,30.3007721 C74.2108495,31.1450023 72.6279179,31.5671174 70.7706114,31.5671174 C69.4831604,31.5671174 68.3223438,31.3613363 67.2881619,30.949774 C66.2539799,30.5382118 65.378091,29.9525271 64.6604954,29.1927199 C63.9428997,28.4329128 63.3888736,27.5253653 62.9984172,26.4700776 C62.6079607,25.4147898 62.4127325,24.2539733 62.4127325,22.987628 C62.4127325,21.7634942 62.6132371,20.6237834 63.0142465,19.5684957 C63.4152558,18.5132079 63.9851112,17.600384 64.7238126,16.830024 C65.4625141,16.0596639 66.3436793,15.4528735 67.3673084,15.0096526 C68.3909375,14.5664318 69.5253719,14.3448213 70.7706114,14.3448213 Z M58.6182192,9.88095418 L58.6182192,14.7880422 L61.910717,14.7880422 L61.910717,17.7956123 L58.6182192,17.7956123 L58.6182192,25.9002222 C58.6182192,26.6600294 58.7448538,27.1665675 58.9981228,27.4198365 C59.2513919,27.6731056 59.75793,27.7997401 60.5177372,27.7997401 C60.7710062,27.7997401 61.0137224,27.7891872 61.2458857,27.7680815 C61.4006613,27.754011 61.5507466,27.7352503 61.6961418,27.7117995 L61.910717,27.6731056 L61.910717,31.1555552 C61.5308134,31.2188724 61.1086983,31.2610839 60.6443717,31.2821897 C60.1800451,31.3032954 59.7262714,31.3138483 59.2830505,31.3138483 C58.5865606,31.3138483 57.9270058,31.2663604 57.304386,31.1713845 C56.6817662,31.0764086 56.1330166,30.8917332 55.6581371,30.6173584 C55.1832576,30.3429836 54.8086305,29.9525271 54.5342557,29.445989 C54.2903669,28.9957329 54.1548732,28.4204057 54.1277744,27.7200073 L54.1226934,27.4514952 L54.1226934,17.7956123 L51.400051,17.7956123 L51.400051,14.7880422 L54.1226934,14.7880422 L54.1226934,9.88095418 L58.6182192,9.88095418 Z M32.318941,14.7880422 L32.318941,31.1555552 L27.8234152,31.1555552 L27.8234152,14.7880422 L32.318941,14.7880422 Z M44.3763573,14.3448213 C45.5793853,14.3448213 46.5660794,14.5083909 47.3364394,14.8355302 C48.1067995,15.1626694 48.71359,15.6164431 49.1568108,16.1968513 C49.6000317,16.7772596 49.9113415,17.4843024 50.0907405,18.3179797 C50.244511,19.0325603 50.3323798,19.8130425 50.354347,20.6594263 L50.3598388,21.0881101 L50.3598388,31.1555552 L45.864313,31.1555552 L45.864313,21.9112345 C45.864313,20.5604662 45.6532555,19.5526664 45.2311404,18.8878351 C44.8090253,18.2230038 44.059771,17.8905882 42.9833775,17.8905882 C41.7592437,17.8905882 40.872802,18.2546625 40.3240524,18.982811 C39.811886,19.6624163 39.5387307,20.751098 39.5045863,22.2488562 L39.5009279,22.5760658 L39.5009279,31.1555552 L35.0054021,31.1555552 L35.0054021,14.7880422 L39.2793175,14.7880422 L39.2793175,17.0674637 L39.3742934,17.0674637 C39.9441488,16.1177048 40.6828502,15.4264913 41.5903977,14.9938233 C42.4979451,14.5611553 43.4265983,14.3448213 44.3763573,14.3448213 Z M122.107345,14.7880422 L122.107345,31.1555552 L117.611819,31.1555552 L117.611819,14.7880422 L122.107345,14.7880422 Z M128.719477,14.7880422 L131.600412,19.0619576 L134.449689,14.7880422 L139.420094,14.7880422 L134.038127,22.4494312 L140.084926,31.1555552 L134.956227,31.1555552 L131.537095,25.9951981 L128.117963,31.1555552 L123.08424,31.1555552 L128.972746,22.5444071 L123.590778,14.7880422 L128.719477,14.7880422 Z M19.0268381,14.3448213 C19.892174,14.3448213 20.6941927,14.4503501 21.4328941,14.6614077 C22.1715956,14.8724652 22.8047682,15.2101573 23.3324121,15.6744839 C23.860056,16.1388105 24.2716182,16.745601 24.5670987,17.4948553 C24.8297481,18.1608591 24.9756645,18.947765 25.0048477,19.855573 L25.0103196,20.2016683 L25.0103196,31.1555552 L20.5147938,31.1555552 L20.5147938,21.8795759 C20.5147938,21.3308262 20.493688,20.8137352 20.4514765,20.3283029 C20.409265,19.8428705 20.2931834,19.4207554 20.1032316,19.0619576 C19.9132798,18.7031597 19.6336285,18.4182321 19.2642778,18.2071745 C18.8949271,17.996117 18.3936654,17.8905882 17.7604928,17.8905882 C17.1273201,17.8905882 16.6155056,18.0119463 16.2250491,18.2546625 C15.8345926,18.4973786 15.5285592,18.813965 15.3069488,19.2044214 C15.0853383,19.5948779 14.9375981,20.0380987 14.8637279,20.534084 C14.8083253,20.9060729 14.7736987,21.2810298 14.759848,21.6589548 L14.7529227,22.037869 L14.7529227,31.1555552 L10.2573969,31.1555552 L10.2573969,21.9745518 C10.2573969,21.4891194 10.246844,21.0089635 10.2257383,20.534084 C10.2046325,20.0592045 10.1149331,19.6212601 9.95663989,19.2202507 C9.79834673,18.8192414 9.53452479,18.4973786 9.16517408,18.2546625 C8.79582337,18.0119463 8.25235018,17.8905882 7.53475451,17.8905882 C7.32369696,17.8905882 7.04404571,17.9380761 6.69580075,18.033052 C6.3475558,18.1280279 6.00986372,18.3074268 5.68272452,18.5712488 C5.35558532,18.8350707 5.07593406,19.2149743 4.84377076,19.7109595 C4.64062787,20.1449466 4.52635999,20.6960871 4.50096713,21.3643811 L4.4955258,21.6579654 L4.4955258,31.1555552 L0,31.1555552 L0,14.7880422 L4.24225674,14.7880422 L4.24225674,17.0041465 L4.30557401,17.0041465 C4.89653515,16.1599163 5.60885438,15.5056379 6.4425317,15.0413113 C7.27620902,14.5769847 8.23124443,14.3448213 9.30763793,14.3448213 C10.3418199,14.3448213 11.2863025,14.545326 12.1410855,14.9463354 C12.9958686,15.3473447 13.6448706,16.0543875 14.0880914,17.0674637 C14.5735238,16.3498681 15.2330786,15.7166954 16.0667559,15.1679458 C16.9004333,14.6191962 17.8871273,14.3448213 19.0268381,14.3448213 Z M88.2652647,16.3655828 C87.5265633,16.3655828 86.9039435,16.5133231 86.3974054,16.8088037 C85.8908672,17.1042843 85.4845815,17.4947407 85.178548,17.9801731 C84.8725146,18.4656055 84.6509041,19.0196315 84.5137167,19.6422513 C84.3765293,20.2648711 84.3079356,20.913873 84.3079356,21.5892572 C84.3079356,22.2224298 84.3818058,22.8556025 84.5295461,23.4887751 C84.6772863,24.1219478 84.9147261,24.6865267 85.2418653,25.182512 C85.5690045,25.6784972 85.9805667,26.0795065 86.4765519,26.38554 C86.9725372,26.6915734 87.5687748,26.8445902 88.2652647,26.8445902 C89.0039661,26.8445902 89.6213094,26.6968499 90.1172947,26.4013693 C90.6132799,26.1058887 91.0090128,25.7101558 91.3044934,25.2141706 C91.599974,24.7181854 91.8110315,24.1536064 91.937666,23.5204338 C92.0643006,22.8872611 92.1276178,22.2329827 92.1276178,21.5575986 C92.1276178,20.8822144 92.0643006,20.2332124 91.937666,19.6105927 C91.8110315,18.9879729 91.5946975,18.4392233 91.2886641,17.9643438 C90.9826306,17.4894643 90.5868977,17.1042843 90.1014654,16.8088037 C89.616033,16.5133231 89.0039661,16.3655828 88.2652647,16.3655828 Z M107.224263,16.3655828 C106.485561,16.3655828 105.868218,16.5185996 105.372233,16.824633 C104.876248,17.1306665 104.475238,17.5263994 104.169205,18.0118317 C103.863171,18.4972641 103.646837,19.0565666 103.520203,19.6897392 C103.393568,20.3229119 103.330251,20.9771903 103.330251,21.6525744 C103.330251,22.3068529 103.398845,22.9505784 103.536032,23.583751 C103.67322,24.2169237 103.89483,24.7709497 104.200863,25.2458292 C104.506897,25.7207087 104.913183,26.1058887 105.419721,26.4013693 C105.926259,26.6968499 106.538326,26.8445902 107.255921,26.8445902 C107.994623,26.8445902 108.611966,26.6968499 109.107951,26.4013693 C109.603937,26.1058887 110.004946,25.7207087 110.310979,25.2458292 C110.617013,24.7709497 110.833347,24.2169237 110.959981,23.583751 C111.086616,22.9505784 111.149933,22.3068529 111.149933,21.6525744 C111.149933,20.998296 111.08134,20.3545705 110.944152,19.7213979 C110.806965,19.0882252 110.580078,18.5236463 110.263492,18.027661 C109.946905,17.5316758 109.540619,17.1306665 109.044634,16.824633 C108.548649,16.5185996 107.941858,16.3655828 107.224263,16.3655828 Z M70.6439769,17.732295 C69.9263812,17.732295 69.3301436,17.8536531 68.8552642,18.0963693 C68.3803847,18.3390855 68.0004811,18.6398425 67.7155534,18.9986403 C67.4306257,19.3574381 67.230121,19.7373417 67.1140394,20.1383511 C67.0211741,20.4591586 66.958701,20.7529507 66.9266203,21.0197274 L66.9082583,21.2147446 L74.2214024,21.2147446 C74.0103448,20.0750338 73.6357177,19.2096979 73.0975209,18.6187367 C72.5593241,18.0277756 71.7414761,17.732295 70.6439769,17.732295 Z" id="Combined-Shape" fill="#000000"></path>
                    <circle id="Oval" fill="#000000" cx="119.681561" cy="10.8828262" r="2.26133089"></circle>
                    <circle id="Oval" fill="#000000" cx="30.0180101" cy="10.8828262" r="2.26133089"></circle>
                </g>
            </g>
        </g>
    </g>
</svg>